<?xml version="1.0" standalone="no"?>
<!DOCTYPE svg PUBLIC "-//W3C//DTD SVG 20010904//EN"
 "http://www.w3.org/TR/2001/REC-SVG-20010904/DTD/svg10.dtd">
<svg version="1.0" xmlns="http://www.w3.org/2000/svg"
 width="1792.000000pt" height="2120.000000pt" viewBox="0 0 1792.000000 2120.000000"
 preserveAspectRatio="xMidYMid meet">
<metadata>
Created by potrace 1.16, written by Peter Selinger 2001-2019
</metadata>
<g transform="translate(0.000000,2120.000000) scale(0.100000,-0.100000)"
fill="#000000" stroke="none">
<path d="M8195 19631 c-13 -12 -83 -22 -167 -25 -38 -2 -71 -6 -75 -9 -3 -4
-15 -7 -26 -7 -27 0 -138 -40 -159 -57 -21 -19 -155 -73 -178 -73 -11 0 -22
-4 -25 -10 -3 -5 -16 -10 -28 -10 -12 0 -40 -11 -62 -25 -23 -14 -56 -25 -77
-25 -21 0 -38 -4 -38 -10 0 -5 -6 -10 -14 -10 -7 0 -19 -7 -26 -15 -33 -40
-140 -85 -252 -106 -62 -12 -143 -34 -179 -50 -36 -16 -73 -29 -82 -29 -9 0
-17 -5 -17 -11 0 -5 5 -7 10 -4 6 3 10 -1 10 -10 0 -9 -7 -16 -17 -14 -44 4
-73 -2 -73 -15 0 -12 -46 -50 -62 -51 -3 0 -23 -16 -45 -36 -21 -19 -45 -33
-52 -31 -9 3 -12 0 -8 -10 6 -17 -39 -69 -87 -101 -15 -11 -33 -31 -39 -45
-13 -29 -76 -92 -92 -92 -5 0 -23 -17 -38 -38 -15 -20 -41 -54 -57 -76 -26
-34 -32 -65 -10 -51 4 3 11 -2 14 -11 3 -8 2 -12 -4 -9 -10 6 -65 -83 -56 -92
3 -4 15 3 26 15 28 30 54 29 46 0 -3 -13 -6 -29 -6 -37 0 -8 -6 -11 -15 -7
-10 4 -19 -5 -29 -27 -7 -18 -34 -53 -60 -78 -25 -26 -46 -51 -46 -56 0 -6 -9
-18 -20 -28 -19 -18 -29 -85 -12 -85 9 0 10 -63 1 -70 -23 -18 -80 -136 -82
-170 -1 -14 -10 -28 -19 -32 -9 -4 -28 -25 -42 -46 -14 -22 -39 -51 -57 -65
-30 -24 -31 -26 -15 -42 9 -10 16 -20 14 -24 -8 -17 -84 -110 -90 -110 -5 -1
-17 -10 -28 -21 -11 -11 -29 -20 -39 -20 -11 0 -27 -10 -35 -21 -13 -19 -13
-24 0 -36 18 -19 18 -25 -2 -21 -12 2 -17 -6 -19 -29 -1 -18 1 -33 5 -33 12 0
-1 -44 -15 -52 -15 -9 -7 -68 9 -68 6 0 22 -7 35 -16 l23 -16 -34 -29 c-18
-15 -40 -29 -48 -29 -8 0 -24 -13 -34 -28 -19 -27 -19 -27 0 -10 17 14 21 15
38 2 11 -7 18 -15 15 -17 -2 -1 -21 -12 -41 -22 -36 -19 -49 -35 -28 -35 5 0
15 -10 21 -22 10 -19 6 -26 -40 -69 -28 -26 -51 -52 -51 -57 0 -5 -7 -12 -15
-16 -10 -4 -15 1 -15 14 0 25 -16 26 -23 1 -2 -10 -17 -25 -33 -33 -21 -10
-30 -21 -31 -43 -1 -17 -6 -52 -12 -80 -16 -82 -13 -134 9 -162 13 -17 20 -21
20 -10 0 25 34 14 47 -17 15 -32 17 -49 5 -42 -4 2 -8 -3 -9 -12 -10 -114 -11
-169 -3 -182 9 -13 12 -13 24 3 12 16 14 16 20 1 11 -28 7 -56 -13 -88 -23
-38 -34 -144 -35 -323 -1 -129 0 -132 22 -138 12 -3 22 -12 22 -21 0 -8 7 -17
15 -20 8 -4 15 -12 15 -19 0 -15 28 -28 42 -19 5 4 8 17 5 31 -8 42 17 20 39
-35 12 -30 38 -68 62 -90 46 -42 54 -59 21 -41 -14 7 -19 7 -15 0 11 -18 74
-43 88 -35 7 4 10 3 5 -1 -11 -13 52 -36 70 -26 13 7 10 13 -14 37 -36 35 -79
104 -64 104 17 0 44 -35 76 -97 35 -68 41 -73 78 -71 l27 2 -25 24 c-14 12
-25 28 -25 33 0 19 25 3 45 -29 11 -17 25 -31 31 -32 29 -1 142 -98 178 -154
29 -45 41 -56 44 -43 2 11 9 16 18 13 9 -3 12 -1 9 4 -3 6 1 10 9 10 29 0 27
-20 -4 -52 -25 -25 -34 -28 -40 -17 -5 7 -12 10 -16 6 -8 -7 -6 -115 1 -128 3
-4 0 -31 -6 -59 -8 -38 -8 -55 0 -63 6 -6 11 -25 11 -43 0 -41 9 -64 24 -64
16 0 37 -45 30 -64 -8 -20 18 -91 45 -122 12 -14 20 -32 17 -40 -3 -7 -1 -16
4 -19 5 -3 7 -19 3 -36 -4 -24 -3 -28 10 -23 12 4 18 -7 27 -49 6 -31 18 -61
26 -68 8 -7 13 -18 10 -26 -3 -8 -2 -12 3 -8 5 3 13 -9 17 -27 6 -29 8 -30 15
-13 6 15 8 16 8 4 1 -23 27 -44 34 -27 3 9 9 7 20 -7 8 -11 19 -17 23 -13 4 4
1 14 -6 23 -7 8 -9 15 -5 15 7 0 -53 109 -70 125 -5 6 -17 10 -25 10 -8 0 -16
8 -18 19 -3 11 0 16 7 11 6 -3 8 -11 5 -17 -5 -7 -2 -8 5 -4 15 10 5 64 -17
89 -11 12 -12 17 -2 17 10 0 10 3 0 15 -8 10 -13 74 -16 205 l-3 190 29 -21
c36 -27 42 -42 30 -74 -8 -20 -6 -25 6 -25 8 0 17 6 20 14 10 25 34 6 34 -27
0 -29 -14 -85 -30 -117 -8 -16 1 -98 12 -116 4 -5 2 -16 -4 -24 -8 -12 -9 -11
-4 3 4 12 2 17 -6 14 -9 -2 -12 -22 -10 -62 3 -68 6 -73 28 -54 16 13 17 11
11 -13 -5 -16 -3 -30 5 -34 8 -5 9 -2 5 9 -5 12 -1 17 13 17 14 0 22 -11 30
-42 21 -76 31 -159 32 -269 1 -60 6 -109 10 -109 5 0 7 4 3 9 -3 5 -1 12 5 16
11 7 13 -16 10 -117 -1 -50 2 -68 11 -68 10 0 10 -3 2 -11 -7 -7 -34 -12 -62
-12 -58 0 -70 -20 -23 -38 31 -12 108 -3 118 13 5 7 10 3 15 -10 5 -12 14 -22
21 -22 15 0 80 -95 71 -104 -3 -3 -12 -1 -19 5 -24 19 26 -65 59 -101 50 -53
58 -66 64 -102 3 -18 9 -41 14 -50 5 -9 9 -26 9 -37 0 -12 6 -21 13 -21 7 0
25 -12 40 -26 21 -19 26 -29 18 -37 -8 -8 2 -24 36 -59 26 -26 52 -48 58 -48
6 0 16 -18 22 -40 11 -44 7 -52 -37 -65 -14 -4 -58 -21 -98 -38 -67 -28 -76
-35 -98 -78 -15 -30 -30 -88 -39 -151 -8 -57 -28 -166 -44 -243 -16 -77 -32
-167 -36 -200 -9 -79 -16 -89 -72 -110 -26 -10 -102 -43 -168 -74 -66 -32
-156 -67 -200 -80 -44 -13 -89 -27 -100 -32 -11 -5 -81 -29 -155 -54 -127 -42
-401 -157 -695 -292 -206 -95 -235 -108 -325 -148 -47 -20 -112 -49 -145 -65
-33 -15 -82 -38 -110 -50 -27 -12 -68 -30 -90 -40 -22 -11 -60 -26 -85 -35
-64 -23 -255 -124 -329 -176 -113 -78 -275 -243 -407 -415 -40 -53 -67 -81
-335 -357 -79 -81 -149 -160 -154 -175 -6 -15 -20 -45 -31 -67 -12 -22 -28
-62 -37 -90 -51 -162 -61 -243 -55 -461 4 -140 2 -200 -8 -238 -36 -134 -73
-310 -118 -561 -3 -16 -12 -66 -21 -110 -9 -44 -18 -93 -20 -110 -2 -16 -11
-70 -20 -120 -21 -113 -62 -364 -95 -581 -5 -33 -16 -89 -25 -125 -8 -35 -15
-83 -15 -105 0 -72 -53 -320 -125 -584 -19 -69 -43 -172 -55 -230 -56 -283
-75 -367 -114 -495 -58 -190 -64 -218 -71 -305 -12 -151 -36 -282 -75 -410
-43 -139 -68 -232 -80 -300 -4 -25 -18 -76 -29 -115 -31 -101 -40 -145 -55
-281 -12 -106 -18 -130 -51 -190 -39 -73 -38 -69 -16 -197 6 -32 11 -179 12
-326 1 -267 1 -267 -26 -344 -36 -102 -31 -141 36 -239 49 -72 109 -232 109
-290 0 -13 13 -82 30 -154 16 -71 30 -141 30 -155 0 -42 39 -144 81 -211 58
-94 107 -190 136 -271 14 -40 36 -94 50 -121 l24 -48 -55 -52 c-60 -56 -74
-89 -57 -138 13 -36 100 -187 169 -293 38 -58 278 -521 409 -790 75 -152 80
-159 138 -198 41 -28 71 -61 111 -120 30 -45 76 -110 102 -144 84 -111 147
-197 160 -221 12 -21 10 -27 -21 -61 -46 -51 -95 -138 -139 -246 -66 -162 -76
-201 -62 -239 6 -15 510 -16 5619 -16 5336 0 5613 1 5620 18 3 9 9 64 12 122
5 98 8 108 39 155 26 38 38 72 50 140 13 72 23 98 49 130 92 114 228 301 240
329 18 43 24 93 36 301 5 99 12 203 15 232 5 46 2 57 -29 105 -18 29 -64 80
-100 112 -44 38 -67 66 -67 80 0 11 9 62 20 111 40 180 58 283 75 420 13 111
23 153 46 205 27 58 30 71 23 120 -11 75 -6 113 22 194 20 57 24 89 24 176 l0
107 48 49 c56 57 115 189 116 263 1 44 1 44 -74 97 -69 48 -75 55 -72 84 1 18
19 71 39 118 29 70 38 106 44 182 10 135 25 214 54 300 32 95 41 220 26 365
-24 220 -61 475 -75 507 -21 50 -84 256 -95 313 -5 28 -15 100 -21 160 -26
258 -25 256 -100 430 -68 157 -120 326 -126 403 -8 114 -24 291 -39 422 -8 69
-19 179 -25 245 -5 66 -21 188 -34 270 -44 265 -65 397 -81 520 -15 117 -56
364 -76 455 -5 25 -27 149 -49 275 -36 206 -54 298 -104 515 -8 36 -28 129
-45 207 -16 78 -37 155 -45 171 -8 16 -29 70 -45 118 -32 98 -176 487 -191
519 -5 11 -28 74 -50 139 -23 65 -49 135 -59 155 -10 20 -24 63 -30 96 -39
199 -76 315 -118 371 -12 17 -45 77 -72 135 -52 110 -135 210 -162 194 -7 -5
-10 -4 -6 3 22 34 -362 418 -410 410 -10 -2 -17 2 -15 10 3 19 -105 85 -283
172 -195 96 -275 126 -481 180 -113 30 -491 153 -644 210 -47 17 -141 51 -210
75 -69 24 -170 59 -225 78 -209 72 -502 161 -600 181 -57 11 -62 14 -101 71
-77 110 -217 371 -268 497 -52 130 -83 170 -166 214 -41 21 -70 43 -70 52 0
22 39 62 55 56 8 -4 18 9 25 33 20 62 87 182 120 216 19 20 27 34 20 41 -6 6
-15 5 -24 -4 -13 -10 -17 -9 -23 5 -4 12 1 24 16 36 12 10 20 23 17 28 -4 5 2
14 11 20 10 6 15 11 10 11 -4 0 0 14 9 31 14 29 18 47 23 115 0 12 10 31 21
44 11 13 20 32 20 44 0 35 34 131 53 150 10 11 17 34 18 59 2 81 8 120 20 128
14 8 4 42 -12 37 -6 -2 -10 -8 -10 -13 0 -6 -9 -24 -20 -41 -13 -21 -19 -49
-19 -85 0 -35 -6 -63 -17 -78 -9 -13 -18 -33 -19 -45 -15 -95 -34 -155 -56
-185 -10 -13 -18 -34 -18 -47 0 -12 -10 -30 -22 -38 -21 -15 -47 -73 -49 -111
0 -17 -2 -17 -12 5 -6 14 -16 28 -22 32 -6 5 -2 8 8 8 14 0 18 7 17 28 -3 46
-1 54 15 48 11 -4 15 2 15 23 0 16 6 34 14 40 10 9 12 21 5 49 -5 20 -9 56 -9
80 0 46 -6 51 -26 25 -16 -22 -18 -70 -3 -75 7 -2 9 -15 5 -35 -5 -22 -12 -30
-22 -26 -9 3 -13 13 -9 27 2 11 2 15 -1 9 -8 -19 -24 -16 -17 3 4 10 -1 17
-16 21 -25 6 -27 19 -6 40 12 12 13 18 4 29 -6 8 -18 14 -25 14 -8 0 -15 10
-16 23 0 12 -2 27 -3 32 -2 6 -3 14 -4 19 0 5 -7 3 -15 -3 -12 -10 -17 -8 -27
11 -13 23 -15 29 -18 49 -2 19 -71 -14 -71 -35 0 -3 7 -6 15 -6 13 0 41 -38
38 -51 -1 -4 6 -14 16 -23 22 -20 17 -66 -8 -66 -9 0 -22 13 -29 29 -9 19 -18
28 -28 24 -10 -4 -14 2 -14 20 0 13 -7 30 -15 37 -8 7 -15 17 -15 22 0 15 -27
38 -35 30 -4 -4 -5 4 -3 17 2 16 11 25 26 27 12 2 22 0 22 -4 0 -5 10 -8 23
-6 12 1 25 3 29 3 5 1 7 4 7 9 -1 4 -1 17 0 30 1 21 5 23 44 20 38 -3 42 -5
42 -30 -1 -18 5 -28 18 -32 21 -5 32 15 24 44 -7 27 19 26 33 0 16 -30 34 -25
24 8 -4 15 -6 46 -5 69 1 33 -2 44 -19 53 -11 6 -18 15 -15 21 4 5 -3 20 -13
34 l-20 25 -7 -40 c-8 -45 -27 -70 -55 -70 -10 0 -25 -3 -33 -6 -10 -4 -21 4
-30 23 -9 15 -17 27 -19 25 -11 -10 -35 12 -31 28 3 10 -4 36 -16 57 -28 52
-45 119 -26 103 24 -20 42 38 23 74 -7 11 -11 24 -10 29 1 4 -3 7 -9 7 -6 0
-8 13 -5 32 3 17 2 44 -1 60 -4 22 -10 27 -24 23 -13 -4 -19 -1 -19 9 0 8 -16
24 -34 36 -19 11 -34 26 -32 33 1 7 1 9 -1 5 -3 -5 -12 -8 -20 -8 -12 0 -13 3
-3 15 16 19 7 31 -28 38 -15 3 -40 17 -55 31 -16 14 -32 26 -36 26 -5 0 -14 7
-21 15 -7 8 -16 13 -20 10 -5 -3 -10 -1 -12 3 -1 5 -19 19 -39 33 -112 75
-208 199 -154 199 8 0 14 5 12 11 -3 15 67 38 141 45 34 4 65 11 68 15 3 5 14
9 26 9 34 0 181 76 230 119 94 83 228 332 228 424 0 15 5 27 10 27 6 0 10 -12
10 -27 0 -15 9 -50 19 -78 11 -27 25 -70 31 -95 18 -67 42 -134 52 -145 4 -5
8 -19 8 -32 0 -12 4 -32 9 -45 5 -13 17 -59 26 -103 9 -44 27 -116 40 -160 28
-100 42 -162 55 -245 5 -36 17 -105 26 -155 17 -98 35 -380 26 -403 -4 -11 -1
-12 14 -5 10 6 24 8 31 6 9 -3 11 13 7 64 -3 37 -6 73 -6 78 -1 6 2 43 7 84 7
71 7 73 -14 66 -17 -5 -21 -2 -21 13 0 11 6 22 12 24 10 4 9 14 -4 44 -8 21
-17 68 -18 104 -1 36 -5 67 -9 70 -5 3 -11 30 -14 60 -3 30 -17 80 -31 110
-17 36 -26 72 -26 105 0 32 -7 62 -20 82 -19 31 -45 152 -35 162 3 2 5 -1 5
-8 0 -7 3 -10 8 -8 4 3 8 76 10 164 3 123 0 166 -11 193 -9 19 -18 34 -21 33
-33 -15 -64 24 -46 57 8 16 17 19 33 14 12 -4 23 -10 25 -14 2 -5 12 -18 23
-31 17 -20 19 -20 19 -4 0 10 13 41 28 69 27 48 28 57 26 159 -1 90 1 109 15
117 13 8 13 11 3 18 -8 5 -10 16 -6 27 7 18 8 18 14 0 4 -11 10 17 14 65 4 49
14 95 22 109 12 18 14 37 9 77 -3 30 -11 56 -16 59 -5 4 -9 14 -8 23 0 12 3
11 9 -5 5 -13 14 -23 19 -23 6 0 7 8 4 17 -6 15 -5 16 9 3 8 -8 13 -21 11 -27
-3 -7 1 -13 7 -13 10 0 12 23 7 100 -6 90 -5 99 9 85 21 -20 21 -20 16 21 -3
23 -1 34 5 31 7 -4 9 15 7 54 -2 33 0 58 4 55 5 -3 16 12 25 33 14 32 15 50 7
115 -11 85 -1 132 18 86 6 -14 14 -38 18 -55 5 -20 9 -24 11 -13 2 9 -7 50
-21 90 -14 41 -26 83 -26 94 0 20 -26 106 -41 136 -5 10 -9 26 -9 36 0 11 -11
36 -25 56 -13 20 -22 36 -18 36 3 0 -1 8 -10 18 -34 38 -108 150 -138 210 -20
40 -50 80 -87 112 -52 46 -55 52 -43 71 9 15 10 24 2 32 -13 13 -14 27 -2 27
5 0 13 -9 16 -20 4 -11 11 -18 16 -14 5 3 7 10 4 15 -4 5 -4 9 0 9 14 0 81
-32 98 -48 10 -9 26 -17 35 -17 9 0 22 -11 28 -24 19 -37 54 -50 54 -21 0 11
-145 120 -159 120 -15 0 -51 50 -51 70 0 19 -43 36 -61 24 -6 -3 -24 0 -40 6
-31 13 -74 87 -71 124 1 13 -25 44 -68 84 -61 57 -89 102 -61 102 17 0 151
-137 151 -154 0 -9 4 -15 9 -11 10 6 73 -53 129 -120 41 -51 41 -31 -2 50 -37
69 -105 144 -176 192 -44 30 -87 71 -82 79 1 2 2 10 1 17 0 6 -4 4 -7 -6 -7
-16 -12 -15 -55 13 -45 28 -52 41 -47 85 2 16 0 17 -14 6 -13 -11 -14 -9 -10
12 2 14 0 37 -5 50 -9 24 -8 25 16 21 15 -3 30 -7 35 -10 4 -3 8 -2 8 3 0 4
-13 17 -29 27 -16 11 -36 32 -45 47 -9 15 -25 31 -36 34 -11 4 -20 11 -20 16
0 5 -7 9 -14 9 -8 0 -45 29 -82 64 -37 36 -71 63 -75 60 -12 -7 -88 79 -81 91
4 5 7 13 8 18 1 4 2 9 3 11 2 8 66 -17 73 -28 5 -7 8 -6 8 4 0 8 -12 21 -27
27 -40 18 -111 79 -168 144 -28 31 -59 61 -70 67 -11 6 -65 36 -120 67 -101
57 -169 90 -260 127 -96 39 -165 72 -165 78 0 9 -63 30 -92 30 -14 0 -41 10
-59 23 -46 31 -166 51 -234 38 -27 -5 -40 -9 -27 -10 12 0 22 -7 22 -16 0 -18
-1 -18 -35 -5 -14 5 -24 6 -21 1 3 -5 -11 -7 -32 -5 -20 2 -68 6 -107 10 -38
3 -82 12 -97 20 -32 17 -31 16 -43 5z m885 -1751 c0 -18 -5 -30 -13 -30 -8 0
-14 -6 -14 -14 0 -20 -56 -96 -71 -96 -7 0 -15 -7 -18 -15 -4 -8 -14 -15 -23
-15 -9 0 -25 -6 -36 -14 -31 -21 -137 -27 -151 -9 -6 9 -16 14 -22 12 -8 -3
-5 -15 9 -38 l20 -34 67 7 c86 9 197 66 280 145 34 32 76 65 94 74 29 14 36
14 55 2 29 -19 34 -19 26 3 -6 16 -6 16 10 0 9 -9 35 -19 56 -23 27 -4 42 -13
46 -26 4 -10 14 -19 23 -19 9 0 32 -9 50 -20 18 -11 39 -20 47 -20 8 0 15 -4
15 -10 0 -15 33 -12 58 6 21 14 25 14 45 0 44 -31 57 -43 57 -55 0 -6 6 -11
14 -11 8 0 18 -9 21 -20 5 -15 12 -19 25 -15 13 4 20 0 25 -16 6 -17 9 -19 16
-8 7 11 11 10 22 -5 16 -21 73 -28 97 -12 8 6 12 7 8 2 -4 -5 -3 -17 3 -28 7
-13 7 -23 0 -32 -10 -12 11 -41 51 -69 10 -7 19 -24 20 -39 1 -16 5 -28 9 -28
4 0 10 -17 14 -37 4 -21 15 -58 25 -83 10 -25 21 -69 24 -99 3 -30 9 -57 14
-60 4 -3 8 -22 7 -41 -1 -19 3 -38 9 -42 8 -6 7 -11 -2 -17 -11 -6 -9 -10 7
-14 20 -5 20 -7 6 -46 -15 -43 -11 -76 9 -64 8 5 8 3 -1 -8 -14 -17 5 -92 22
-85 6 2 10 -17 11 -45 1 -27 -3 -46 -8 -43 -4 3 -8 0 -8 -5 0 -6 4 -11 9 -11
5 0 11 -10 15 -22 5 -19 8 -21 16 -8 7 11 9 7 6 -17 l-3 -33 63 0 c60 0 64 -2
79 -30 17 -33 20 -126 4 -135 -6 -4 -20 2 -32 13 -14 12 -35 19 -57 18 l-35
-1 3 -55 c2 -30 8 -84 13 -120 13 -100 11 -356 -5 -430 -23 -109 -155 -320
-237 -380 -89 -64 -281 -103 -499 -101 -80 0 -169 6 -197 12 -108 22 -234 134
-350 310 -120 184 -156 271 -193 469 -24 127 -25 211 -4 294 26 102 79 178 79
113 0 -43 13 -50 75 -38 3 1 -1 5 -9 10 -18 12 -23 101 -5 101 7 0 14 5 16 11
2 7 3 -10 2 -36 -2 -57 14 -114 27 -94 5 9 28 14 64 14 47 0 55 -3 55 -19 0
-14 3 -16 13 -8 16 13 55 16 119 8 26 -3 50 -1 53 4 3 5 27 -4 54 -20 27 -17
61 -30 77 -30 24 1 21 4 -21 18 -35 12 -56 27 -73 51 -20 31 -21 36 -7 44 20
11 110 -9 126 -29 7 -9 17 -11 28 -4 13 6 20 3 30 -12 8 -13 19 -18 32 -15 10
3 19 1 19 -5 0 -7 23 -9 62 -6 54 4 68 1 120 -26 31 -17 67 -39 79 -49 40 -35
68 2 29 38 -11 10 -20 24 -20 31 0 7 -39 53 -87 103 -88 90 -88 91 -138 91
-27 0 -61 0 -75 0 -31 1 -100 30 -100 43 0 5 -7 4 -15 -3 -12 -10 -15 -10 -15
4 0 16 -17 20 -84 18 -20 0 -25 3 -16 8 11 7 11 11 0 24 -7 9 -10 19 -6 23 3
3 6 2 6 -4 0 -6 7 -14 16 -17 12 -4 14 -1 9 14 -5 15 0 23 17 29 20 9 19 10
-15 10 -21 1 -36 -3 -33 -8 3 -5 -1 -12 -10 -15 -8 -3 -13 -10 -9 -15 3 -6
-34 -9 -94 -8 -82 1 -103 -2 -119 -16 -10 -9 -22 -14 -26 -10 -4 4 -18 -6 -31
-22 -13 -17 -24 -24 -25 -17 0 6 5 12 10 12 6 0 10 5 10 10 0 6 -7 10 -15 10
-8 0 -15 -4 -15 -10 0 -5 -9 -10 -21 -10 -11 0 -29 -5 -40 -10 -20 -11 -69
-82 -69 -101 0 -6 -15 -41 -32 -77 -27 -56 -33 -79 -34 -142 -2 -178 -4 -223
-11 -217 -3 4 -11 0 -17 -8 -9 -12 -11 -8 -13 20 -1 20 2 33 8 29 11 -7 -26
95 -40 109 -5 5 -14 6 -21 2 -8 -5 -5 -12 9 -22 22 -15 30 -73 11 -73 -5 0
-10 5 -10 10 0 6 -4 10 -10 10 -5 0 -10 -7 -10 -15 0 -8 -4 -15 -10 -15 -5 0
-10 5 -10 10 0 6 -13 10 -30 10 -29 0 -45 -25 -17 -28 87 -7 87 -7 108 -47 12
-21 22 -57 24 -79 1 -23 3 -46 4 -53 0 -7 8 -10 16 -7 9 4 24 -3 36 -17 17
-20 20 -33 16 -76 -4 -37 -2 -51 6 -47 7 2 12 -7 13 -26 1 -30 19 -60 36 -60
5 0 6 5 3 10 -3 6 -4 10 -1 10 7 0 91 -139 115 -190 27 -59 120 -157 196 -208
33 -22 72 -53 87 -69 30 -32 58 -101 58 -144 0 -16 5 -29 10 -29 6 0 10 5 10
10 0 14 34 12 89 -4 25 -8 58 -18 72 -23 24 -7 149 -137 149 -155 0 -4 11 -24
25 -44 30 -43 32 -58 7 -52 -10 3 -23 -1 -30 -9 -7 -7 -9 -13 -5 -13 5 0 9 -8
10 -19 1 -18 -1 -18 -45 -5 -28 9 -69 13 -102 10 -41 -4 -58 -2 -72 11 -10 9
-43 20 -74 24 -37 5 -65 15 -80 30 -25 24 -25 33 2 117 8 23 14 53 14 66 0 22
-5 24 -69 31 -48 5 -94 2 -152 -9 -145 -28 -187 -45 -230 -89 -21 -23 -39 -44
-39 -48 0 -11 -80 -62 -86 -56 -4 4 -16 2 -26 -4 -14 -7 -23 -8 -30 -1 -6 6
-17 8 -24 5 -8 -3 -14 0 -14 5 0 18 17 23 43 13 20 -8 29 -6 42 9 18 20 3 39
-18 22 -15 -13 -92 -23 -112 -16 -8 4 -15 11 -15 16 0 21 -44 48 -77 48 -18 0
-33 5 -33 12 0 6 -9 3 -20 -7 -11 -10 -20 -15 -20 -10 0 4 -6 3 -12 -3 -7 -5
-59 -12 -115 -15 -63 -3 -113 -11 -133 -21 -50 -24 -100 -31 -100 -13 0 8 -9
26 -21 41 -33 42 -18 75 87 196 52 60 103 115 115 123 17 13 19 19 10 36 -9
16 -7 27 9 53 11 18 20 43 20 56 0 13 4 20 10 17 5 -3 7 0 4 8 -3 8 -1 18 5
22 6 3 11 14 11 23 0 9 13 44 29 77 49 102 66 209 36 238 -8 8 -11 17 -8 21
13 13 22 5 29 -26 7 -32 8 -33 15 -8 4 14 7 55 8 92 1 57 -2 70 -21 88 -15 14
-19 23 -12 28 6 4 14 17 18 30 4 12 12 22 17 22 5 0 13 10 18 22 5 15 27 29
72 44 35 12 65 26 67 32 6 18 -26 21 -75 6 -26 -8 -65 -19 -85 -25 -21 -5 -38
-16 -38 -23 0 -8 -12 -16 -26 -19 -19 -3 -27 0 -34 17 -4 11 -16 40 -25 63
-10 23 -14 46 -11 52 10 15 -75 139 -117 172 -54 43 -115 70 -153 67 -50 -3
-63 -23 -17 -26 55 -4 154 -54 192 -97 42 -49 75 -118 102 -221 30 -110 33
-369 5 -493 -42 -193 -123 -382 -200 -467 -70 -79 -180 -129 -376 -173 -52
-12 -106 -24 -120 -27 -58 -14 -204 -20 -256 -12 -75 12 -103 27 -207 116 -99
84 -155 152 -190 232 -41 96 -108 356 -122 483 -4 31 -12 57 -18 57 -25 0 33
-293 94 -474 47 -140 130 -251 259 -351 103 -79 150 -97 261 -98 55 0 99 -4
99 -9 0 -4 -4 -8 -10 -8 -12 0 -13 -47 -1 -54 5 -3 25 1 45 9 44 19 74 19 106
0 14 -8 35 -19 48 -24 29 -14 29 -54 0 -83 -12 -12 -22 -29 -23 -38 0 -9 -13
-32 -28 -51 -15 -20 -27 -45 -27 -57 0 -11 -4 -24 -10 -27 -5 -3 -10 -17 -10
-29 0 -13 -15 -38 -34 -57 -32 -31 -34 -35 -20 -51 23 -24 9 -61 -18 -52 -17
5 -20 3 -14 -11 3 -10 1 -24 -5 -31 -6 -8 -9 -21 -5 -29 3 -8 2 -35 -3 -59 -4
-25 -5 -48 -1 -53 12 -13 33 -131 27 -148 -10 -24 -37 -18 -37 9 0 13 -7 29
-15 36 -8 7 -15 20 -15 29 -1 14 -2 14 -14 -2 -9 -11 -20 -15 -31 -11 -15 6
-16 2 -9 -37 4 -24 7 -55 6 -69 -1 -14 -2 -35 -2 -46 -1 -30 -20 -44 -47 -33
-21 8 -29 26 -24 54 1 6 -5 3 -14 -6 -16 -16 -20 -50 -11 -109 5 -34 4 -34 20
-21 10 8 16 9 21 1 3 -5 20 -10 36 -10 24 0 30 -4 27 -17 -2 -10 -12 -18 -23
-18 -14 0 -20 -8 -22 -29 -1 -16 -9 -36 -18 -45 -13 -14 -15 -13 -17 9 0 14
-1 33 0 43 2 25 -17 21 -40 -8 -11 -14 -23 -23 -27 -20 -10 5 -22 86 -21 130
0 20 -7 35 -22 47 -13 10 -17 18 -10 18 6 0 12 7 12 15 0 22 -33 0 -54 -36
-15 -26 -15 -28 1 -38 10 -5 15 -13 11 -17 -11 -10 -69 -13 -62 -3 3 5 -3 6
-12 2 -14 -5 -16 -3 -11 11 4 10 7 24 7 32 0 8 7 14 15 14 10 0 15 10 15 28 0
15 3 36 6 48 4 17 1 20 -18 19 -13 -1 -26 3 -30 8 -9 14 -38 18 -38 6 0 -6 -5
-7 -12 -3 -7 5 -9 2 -5 -9 3 -8 0 -18 -8 -21 -8 -3 -15 -1 -17 4 -2 4 -9 2
-16 -6 -10 -11 -8 -15 8 -24 11 -6 20 -18 21 -28 0 -9 6 -2 13 17 7 19 18 37
24 39 7 2 10 -2 6 -11 -3 -8 -1 -18 5 -22 17 -10 13 -75 -4 -81 -8 -4 -15 -12
-15 -20 0 -8 -5 -14 -10 -14 -6 0 -15 -12 -21 -27 l-10 -28 -19 25 c-20 26
-23 23 -20 -22 1 -19 -8 -35 -30 -55 -20 -18 -31 -36 -29 -48 4 -18 5 -18 19
-3 14 14 16 14 31 -3 17 -20 33 -127 23 -154 -10 -26 -37 -12 -46 24 -6 20
-17 35 -29 38 -20 6 -59 70 -59 98 0 8 -11 33 -25 55 -14 22 -25 43 -25 47 0
15 37 31 68 29 21 -1 31 3 31 13 8 140 -7 281 -30 281 -13 0 -19 -146 -6 -173
5 -12 4 -16 -5 -15 -6 2 -13 -7 -14 -19 -1 -13 -2 -27 -3 -33 -2 -15 -37 -12
-51 5 -7 8 -12 40 -12 70 0 30 -3 53 -8 50 -8 -5 -22 19 -24 40 -1 6 -8 28
-17 50 -9 22 -21 60 -27 85 -6 25 -14 54 -17 65 -6 17 -5 18 5 5 10 -13 11
-12 5 5 -15 43 -26 99 -21 112 3 8 2 11 -3 8 -5 -3 -9 9 -9 27 2 46 -9 103
-23 130 -7 12 -16 38 -21 58 -31 119 -36 187 -37 515 -1 187 -6 367 -12 400
-8 50 -8 86 0 168 1 5 6 5 11 2 13 -8 13 31 -1 56 -5 11 -15 17 -20 13 -6 -4
-4 -15 6 -30 10 -16 11 -24 4 -24 -19 0 -51 43 -46 62 3 10 2 16 -2 13 -12 -7
-21 130 -17 233 3 70 9 101 31 145 14 32 31 57 37 57 6 0 8 10 4 25 -4 16 0
34 10 50 10 15 14 34 10 49 -6 24 15 43 35 31 5 -4 6 2 2 11 -5 13 -3 16 10
11 11 -4 14 -2 10 9 -3 8 1 14 10 14 23 0 41 26 23 33 -16 6 -11 47 6 47 6 0
7 11 4 24 -5 19 2 33 29 63 19 21 33 43 31 50 -3 7 1 10 10 6 10 -4 14 3 14
23 0 23 2 26 10 14 9 -14 14 -7 11 13 -1 5 4 7 11 4 7 -2 12 -9 11 -15 -2 -6
4 -9 12 -6 14 6 19 17 16 36 0 4 6 5 14 2 11 -5 13 -2 9 10 -5 12 -2 15 12 9
13 -5 15 -3 9 7 -5 8 -4 11 3 6 6 -4 9 -13 5 -21 -4 -11 -1 -13 11 -9 12 5 19
0 23 -15 7 -26 12 -26 29 -4 8 12 9 22 2 30 -7 9 0 14 31 19 23 4 41 10 41 14
0 20 54 61 95 72 26 7 44 17 41 24 -2 6 4 18 15 27 10 9 19 26 19 36 0 11 8
22 18 25 10 4 29 16 42 28 13 12 32 23 44 24 12 1 24 3 27 3 4 1 10 12 13 26
5 18 13 25 30 25 16 0 26 7 29 21 3 12 10 18 16 14 6 -3 11 1 11 10 0 9 5 13
10 10 6 -3 10 -2 10 3 0 4 17 8 39 8 33 0 45 6 79 43 26 28 59 50 94 62 48 18
49 19 16 15 -21 -3 -38 -3 -38 -2 0 11 52 56 65 56 8 0 15 7 15 15 0 20 44 47
72 45 37 -3 40 -1 24 16 -20 20 -21 38 -1 30 8 -3 15 0 15 7 0 7 13 18 30 25
26 12 28 15 15 29 -20 19 -19 25 3 21 11 -2 26 3 35 11 10 7 17 10 17 6 0 -4
7 -2 16 6 13 10 17 10 25 -2 5 -8 9 -9 9 -3 0 7 8 11 18 10 12 -1 19 10 26 39
7 30 19 48 47 68 20 15 42 27 48 27 26 0 59 31 54 50 -3 11 0 20 6 20 6 0 11
-4 11 -10 0 -5 17 -12 38 -15 20 -3 57 -12 82 -19 29 -9 49 -10 57 -4 6 5 59
11 116 14 63 2 120 10 143 20 38 16 138 47 186 58 15 3 39 1 55 -6 15 -6 32
-10 37 -9 4 1 14 -4 22 -10 11 -9 14 -8 14 5 0 19 4 20 32 5 16 -9 19 -8 13 2
-6 9 -3 11 8 6 9 -3 19 -1 23 4 3 6 19 8 35 5 19 -3 33 0 41 9 21 24 38 17 38
-15z m-1167 -2877 c7 -53 30 -109 56 -137 20 -21 21 -27 9 -45 -7 -12 -21 -21
-30 -21 -10 0 -18 -4 -18 -9 0 -6 -9 -9 -20 -8 -11 1 -20 5 -20 10 0 4 -4 6
-9 3 -5 -3 -7 -14 -5 -24 3 -10 -7 -29 -26 -47 -22 -21 -29 -24 -24 -11 6 16
4 17 -17 11 -13 -4 -29 -13 -35 -21 -12 -15 -105 -47 -113 -39 -2 3 2 17 9 31
11 20 12 29 2 45 -8 12 -8 19 -2 19 7 0 8 6 0 19 -15 29 -12 58 6 65 9 4 14 9
11 13 -4 3 2 18 13 33 11 16 20 33 20 39 0 6 8 15 19 20 10 6 28 26 40 46 18
31 25 35 55 33 20 -1 38 1 42 5 17 17 32 4 37 -30z m1044 -164 c8 -8 13 -8 17
0 11 18 26 13 26 -9 0 -11 -6 -20 -12 -20 -10 0 -9 -3 1 -9 10 -7 10 -12 -5
-30 -10 -11 -24 -21 -32 -21 -7 0 -10 -5 -6 -12 5 -7 3 -8 -5 -4 -7 5 -17 1
-24 -8 -7 -8 -31 -16 -57 -18 -25 -2 -44 -8 -43 -14 2 -11 -5 -12 -229 -16
-162 -3 -158 -5 -158 58 0 36 8 42 28 22 8 -8 12 -8 12 -1 0 17 27 24 145 38
61 7 130 18 155 25 37 9 115 23 166 29 5 0 15 -4 21 -10z m240 -225 c12 -20
18 -50 18 -108 2 -77 3 -81 25 -84 13 -2 32 1 44 6 45 22 66 21 92 -5 14 -14
31 -22 39 -19 19 7 19 -8 0 -27 -12 -13 -12 -16 8 -21 23 -6 82 28 122 70 33
35 119 53 129 28 3 -8 16 -13 28 -11 15 1 26 -5 32 -20 6 -12 18 -24 27 -26 9
-3 22 -22 29 -43 7 -22 17 -42 22 -45 5 -3 13 -23 18 -43 7 -34 6 -38 -15 -46
-19 -7 -23 -15 -20 -39 2 -17 1 -31 -4 -31 -4 0 -6 -20 -6 -45 2 -53 -3 -59
-42 -44 -22 8 -26 8 -15 -2 16 -18 15 -29 -4 -29 -8 0 -13 4 -10 9 4 5 -5 4
-18 -2 -28 -13 -23 -41 6 -34 19 5 48 -16 48 -36 0 -8 -3 -8 -8 -2 -4 6 -20
10 -37 10 -16 0 -38 6 -47 13 -31 25 -47 -8 -20 -40 6 -8 15 -30 18 -49 5 -27
4 -32 -6 -22 -7 6 -19 9 -26 6 -8 -3 -14 1 -14 11 0 9 -5 16 -10 16 -6 0 -8
-11 -4 -25 4 -17 1 -32 -9 -43 -9 -9 -18 -29 -22 -44 -4 -15 -16 -30 -26 -33
-21 -7 -26 -25 -6 -25 14 0 41 -39 33 -47 -3 -3 -17 2 -31 11 -15 10 -33 16
-41 14 -12 -2 -10 -10 11 -37 26 -36 33 -57 15 -46 -16 10 -11 -22 6 -39 14
-15 14 -16 -4 -16 -21 0 -46 -23 -35 -33 3 -4 1 -7 -5 -7 -7 0 -12 9 -12 21 0
11 4 18 9 14 5 -3 12 -2 15 3 2 4 -4 13 -15 20 -16 10 -19 9 -20 -5 -1 -10 -1
-21 0 -25 0 -4 -5 -5 -13 -2 -11 4 -12 -3 -5 -38 11 -60 11 -136 -1 -143 -5
-3 -10 -17 -10 -30 0 -41 -17 -37 -24 5 -3 22 -17 64 -31 94 -14 30 -25 60
-25 65 0 6 -4 11 -10 11 -5 0 -10 -5 -10 -11 0 -6 -7 -8 -15 -5 -9 3 -18 -1
-22 -10 -4 -11 -10 -8 -24 15 -25 41 -37 39 -36 -6 2 -34 5 -38 30 -41 21 -3
27 -9 27 -27 0 -12 -7 -25 -15 -29 -10 -3 -15 1 -15 13 0 30 -25 45 -43 26
-10 -9 -18 -11 -22 -5 -11 17 -25 0 -25 -30 0 -25 -3 -28 -35 -28 -20 0 -35 5
-35 12 0 6 -5 3 -11 -7 -5 -9 -7 -21 -4 -27 3 -5 -9 -3 -27 4 -30 13 -33 18
-36 65 -3 57 -16 65 -35 24 -6 -16 -14 -30 -18 -33 -3 -3 -12 -16 -19 -30 -9
-17 -10 -25 -1 -28 23 -8 10 -17 -28 -19 -37 -1 -40 1 -57 40 -10 23 -17 53
-16 66 2 15 -1 22 -10 19 -9 -3 -13 -23 -12 -61 1 -47 -2 -58 -17 -62 -21 -7
-25 -25 -9 -41 7 -7 1 -9 -19 -6 -17 2 -31 11 -34 22 -3 13 0 17 9 13 8 -3 14
0 14 6 0 6 -11 11 -25 11 -25 0 -29 7 -26 45 2 20 1 20 -14 1 -22 -28 -29 -13
-11 22 15 30 13 62 -5 62 -5 0 -9 -9 -9 -20 0 -11 -4 -20 -10 -20 -5 0 -10 9
-10 20 0 11 -4 20 -9 20 -5 0 -7 8 -4 19 3 11 -2 21 -11 24 -9 4 -16 2 -16 -3
0 -5 -9 -12 -20 -15 -11 -3 -20 -13 -20 -22 0 -8 -9 -17 -20 -20 -11 -3 -20
-9 -20 -14 0 -5 -5 -9 -11 -9 -16 0 -2 51 22 76 24 25 25 38 2 25 -33 -18 -62
-51 -57 -65 3 -8 1 -17 -4 -20 -11 -6 -14 54 -4 70 15 22 58 44 85 44 22 0 28
4 25 18 -2 10 -14 18 -28 20 -31 4 -100 -24 -100 -40 0 -8 -3 -9 -10 -2 -5 5
-6 24 0 49 12 52 12 65 -1 65 -5 0 -8 -4 -5 -9 3 -5 -3 -20 -14 -33 -10 -14
-22 -37 -26 -51 -3 -15 -17 -36 -31 -47 -20 -16 -24 -25 -18 -50 8 -36 -6 -40
-28 -7 -14 21 -13 25 4 48 11 14 18 37 17 55 -1 19 5 38 15 48 18 18 23 46 9
46 -18 0 -72 -32 -82 -48 -6 -11 -10 -12 -10 -4 0 8 -5 10 -12 5 -7 -4 -15 -8
-18 -9 -3 0 -13 -4 -23 -9 -22 -9 -60 22 -52 43 3 8 -3 16 -14 19 -10 2 -24
16 -32 29 -9 18 -21 25 -38 23 -57 -3 -61 -1 -61 36 0 35 -13 47 -24 23 -5
-10 -7 -10 -12 0 -8 17 -24 5 -18 -13 6 -15 0 -19 -50 -30 -25 -5 -28 -4 -17
9 17 20 -6 58 -28 46 -9 -4 -27 -7 -41 -5 -14 1 -30 3 -37 4 -7 0 -10 7 -7 15
3 8 1 17 -5 21 -6 3 -11 15 -11 26 0 16 -5 19 -19 14 -18 -5 -20 1 -28 67 -13
124 -4 168 33 168 8 0 17 14 21 30 5 28 23 43 23 20 0 -5 5 -10 11 -10 5 0 8
4 5 9 -21 33 81 37 132 5 12 -8 27 -12 32 -9 5 3 12 0 16 -6 7 -11 145 -79
161 -79 6 0 24 -7 42 -16 24 -12 78 -18 210 -22 199 -8 211 -7 211 15 0 10 6
13 15 9 12 -4 14 -2 6 11 -5 10 -21 18 -35 19 -29 1 -35 -12 -8 -19 15 -4 15
-5 0 -6 -9 0 -23 6 -32 14 -11 12 -21 13 -41 5 -15 -6 -32 -7 -38 -3 -6 4 -25
8 -42 10 -49 5 -54 10 -50 44 4 27 2 30 -15 26 -12 -3 -18 -1 -14 5 4 6 -1 8
-12 5 -11 -3 -41 0 -69 7 -33 9 -52 10 -56 3 -4 -5 -12 -6 -19 -2 -9 5 -11 4
-6 -3 4 -7 2 -12 -3 -12 -6 0 -11 5 -11 11 0 5 -4 7 -10 4 -16 -10 -50 -15
-50 -7 1 27 21 33 106 33 49 0 96 0 104 0 8 1 22 -2 31 -5 14 -6 18 2 24 43
l7 51 41 -6 c61 -8 67 -11 67 -34 0 -11 5 -20 11 -20 6 0 9 9 6 19 -8 31 5 39
66 44 49 4 59 2 68 -15 6 -10 21 -23 35 -28 14 -6 24 -17 24 -30 0 -22 8 -25
30 -9 10 7 11 12 4 15 -7 3 -10 14 -7 25 5 17 2 19 -21 13 -19 -4 -27 -2 -32
10 -10 27 14 44 66 48 50 3 65 -7 54 -35 -10 -27 18 -36 81 -25 49 9 56 13 40
20 -27 12 -45 41 -36 57 5 7 22 13 39 13 17 1 33 6 36 13 11 30 154 23 177 -8
3 -5 9 -2 12 7 7 18 -8 30 -28 23 -8 -4 -24 10 -40 35 l-27 41 -13 -30 c-17
-40 -26 -45 -88 -47 -29 -2 -62 -8 -74 -14 -12 -7 -30 -12 -39 -12 -10 0 -33
-6 -52 -12 -28 -11 -38 -10 -63 4 -24 14 -29 15 -29 3 0 -8 -9 -19 -19 -24
-28 -16 -155 -25 -176 -14 -11 7 -29 6 -54 -3 -20 -7 -54 -13 -77 -14 -45 0
-64 14 -86 65 l-13 30 -3 -47 c-3 -42 -6 -49 -28 -54 -20 -5 -33 1 -60 27
l-34 33 16 -42 c14 -34 14 -44 4 -57 -18 -22 -41 -18 -77 14 -25 21 -34 38
-39 74 -6 45 -6 47 17 47 13 0 36 -7 52 -14 25 -14 26 -13 18 2 -15 31 -21 83
-11 102 16 29 76 37 117 15 33 -18 34 -18 72 3 21 12 41 19 44 15 4 -3 24 -6
46 -6 28 0 49 8 71 26 35 30 78 35 131 14 19 -8 39 -13 44 -12 24 3 62 19 84
36 17 14 40 19 82 19 54 0 60 -2 72 -27 9 -18 11 -36 6 -48 -16 -40 -7 -49 11
-10 23 50 24 65 5 65 -8 0 -15 3 -15 8 0 4 27 9 60 10 56 2 61 1 72 -23 l11
-25 46 45 c25 25 49 45 53 45 4 0 15 -12 25 -26z m-2203 -951 c4 -10 1 -20 -9
-26 -13 -7 -14 -12 -4 -23 6 -7 15 -11 20 -9 4 3 13 -5 20 -17 18 -35 85 -78
119 -78 24 0 33 -25 15 -40 -12 -10 -16 -8 -23 11 -9 23 -9 23 -16 -5 -6 -24
-11 -27 -32 -23 -16 3 -28 -1 -31 -9 -2 -7 -11 -10 -19 -7 -9 3 -13 11 -10 18
2 7 -8 23 -24 35 -37 28 -53 69 -47 117 10 69 27 93 41 56z m3050 -590 c3 -10
10 -72 16 -138 6 -66 18 -154 26 -195 10 -50 13 -95 8 -135 -6 -60 -39 -171
-55 -191 -4 -5 -27 -47 -49 -92 -23 -45 -45 -82 -51 -82 -5 0 -8 -3 -7 -7 3
-12 -23 -56 -50 -83 -43 -44 -82 -97 -75 -104 3 -3 -1 -6 -10 -6 -20 0 -22
-11 -5 -28 15 -15 0 -50 -44 -98 -18 -20 -33 -43 -33 -50 0 -8 -7 -19 -15 -24
-13 -9 -13 -11 -1 -19 21 -14 -5 -44 -30 -36 -28 9 -23 -10 8 -30 21 -14 30
-15 45 -6 15 10 18 8 19 -11 1 -13 1 -26 0 -30 0 -5 6 -8 15 -8 11 0 14 -6 8
-22 l-6 -23 20 23 c15 17 27 22 43 17 14 -5 19 -4 15 4 -9 14 5 36 24 36 8 0
17 11 20 25 6 24 6 24 17 5 14 -24 30 -12 35 25 1 13 13 30 26 36 13 6 23 14
23 18 0 3 2 20 6 37 5 25 8 28 15 16 5 -9 15 -14 23 -11 8 4 18 -1 21 -10 5
-13 14 -15 39 -10 20 3 35 1 40 -6 4 -7 15 -2 31 16 35 36 42 22 13 -23 -14
-21 -33 -55 -44 -76 -11 -21 -48 -82 -82 -135 -34 -53 -89 -144 -122 -202
-129 -226 -260 -429 -333 -520 -15 -19 -50 -64 -78 -100 -27 -36 -54 -70 -58
-75 -33 -41 -172 -255 -172 -265 0 -10 -5 -9 -17 4 -62 60 -174 140 -283 201
-47 26 -96 56 -110 67 -102 77 -158 113 -223 143 -42 19 -88 45 -104 58 -15
13 -77 57 -138 98 -60 42 -146 100 -190 131 -44 30 -123 79 -175 108 -52 29
-104 61 -115 70 -17 14 -99 57 -165 84 -8 3 3 4 25 2 22 -2 61 -13 86 -25 26
-12 50 -21 55 -20 5 1 11 0 14 -1 12 -4 47 -10 76 -13 17 -1 38 -8 47 -15 12
-10 16 -10 20 0 4 10 8 10 14 2 10 -15 43 -19 66 -9 12 5 32 0 57 -14 29 -16
40 -18 43 -9 3 7 6 4 6 -7 1 -12 4 -16 9 -8 11 17 32 18 78 5 36 -10 46 -10
71 5 42 24 74 72 63 93 -5 10 -6 20 -3 24 3 3 -3 6 -15 6 -11 0 -24 5 -27 10
-4 6 -3 9 2 8 4 -2 10 2 11 7 2 6 8 16 14 23 7 8 7 12 -1 12 -7 0 -9 4 -6 10
3 6 -1 7 -9 4 -9 -3 -16 -1 -16 5 0 11 13 15 37 12 16 -2 22 10 27 52 2 20 8
42 12 48 4 7 -1 18 -10 25 -22 15 -13 56 10 47 7 -3 14 -1 14 5 0 5 9 12 20
15 11 3 20 13 20 24 0 15 -2 16 -10 3 -6 -9 -10 -10 -10 -3 0 23 19 23 35 1
15 -23 16 -23 21 -3 3 14 14 21 32 22 15 0 19 -1 10 -4 -11 -3 -18 -14 -18
-29 0 -13 -5 -24 -11 -24 -18 0 -5 -45 15 -48 11 -3 16 0 11 7 -3 6 -11 9 -16
6 -14 -9 -11 5 5 21 19 19 32 18 40 -3 6 -14 8 -14 20 3 12 15 16 16 30 5 13
-11 19 -11 31 -1 15 13 39 5 30 -11 -4 -5 -1 -9 5 -9 17 0 7 22 -15 34 -45 26
-60 51 -21 36 13 -5 40 -7 60 -4 23 3 36 0 36 -7 0 -7 9 -4 20 6 18 16 24 17
61 5 30 -10 42 -11 48 -2 4 6 12 8 20 2 8 -5 24 -4 38 3 18 8 33 8 57 -1 40
-15 96 -16 96 -2 0 6 11 8 25 4 20 -5 27 -1 37 20 10 23 16 26 40 21 24 -6 28
-4 28 17 0 13 3 18 8 12 13 -20 46 -21 78 -2 17 10 43 19 57 20 27 2 27 18 0
18 -12 0 -14 7 -10 30 4 16 2 32 -3 35 -6 3 -10 1 -10 -4 0 -6 -5 -11 -12 -11
-9 0 -9 3 0 12 7 7 12 20 12 29 0 10 6 24 13 31 18 18 19 55 1 55 -8 0 -14 -4
-14 -8 0 -5 -7 -6 -15 -3 -20 8 -19 24 1 24 13 0 14 3 5 14 -10 12 -8 13 11 8
21 -5 22 -4 9 11 -7 9 -20 17 -27 17 -11 0 -11 5 -2 25 8 19 8 31 0 50 -15 33
-15 35 4 35 8 0 13 4 10 8 -2 4 -1 13 3 20 5 9 12 8 27 -4 13 -10 14 -14 4
-11 -10 3 -16 -2 -16 -14 0 -32 20 -15 34 29 8 24 22 44 33 47 10 4 19 13 19
21 0 8 7 14 15 14 28 0 30 31 4 52 -13 11 -19 17 -13 14 7 -3 14 3 17 14 3 11
1 20 -5 20 -5 0 -6 5 -2 11 4 8 9 8 17 0 13 -13 67 40 68 67 0 9 9 31 20 47
10 17 28 48 39 70 11 22 20 34 20 26 0 -16 39 32 95 117 28 43 45 60 59 59 13
-1 22 7 29 28 5 17 13 32 17 35 4 3 10 18 14 34 4 15 15 40 25 55 10 14 29 43
42 63 27 42 35 46 43 21z m311 -925 c5 -46 16 -90 31 -118 13 -25 24 -48 24
-52 0 -19 76 -110 104 -125 17 -10 33 -17 36 -18 17 -2 30 -20 30 -41 0 -78
-132 39 -198 177 -35 72 -41 96 -46 172 -7 106 9 110 19 5z m2181 -3369 c19
-11 34 -29 34 -39 0 -11 8 -23 18 -29 14 -8 15 -13 5 -30 -11 -18 -9 -21 21
-31 l34 -11 -29 -29 c-16 -15 -29 -37 -29 -48 0 -34 -11 -52 -31 -52 -10 0
-19 -5 -19 -11 0 -16 -77 79 -96 119 -8 18 -18 49 -21 69 -6 33 -5 34 14 23
10 -7 19 -22 19 -34 -1 -12 4 -20 12 -18 10 2 10 -2 0 -19 -11 -17 -10 -22 5
-30 9 -6 15 -15 11 -20 -3 -5 0 -8 8 -7 7 2 12 -4 10 -12 -3 -12 -1 -13 10 -2
10 10 10 16 0 32 -17 28 -15 47 9 63 23 17 20 19 -34 37 -25 8 -43 22 -53 43
-15 28 -15 31 2 44 26 19 62 16 100 -8z m525 -4495 c29 -31 54 -45 94 -54 l30
-6 11 -109 c11 -107 11 -111 -10 -128 -111 -94 -116 -99 -116 -125 1 -35 30
-99 66 -141 32 -39 32 -33 20 -266 -4 -85 -14 -171 -23 -199 -11 -35 -14 -68
-9 -115 13 -136 32 -201 102 -352 56 -119 89 -251 77 -300 -10 -39 -102 -186
-149 -238 -46 -51 -56 -89 -30 -110 8 -7 29 -47 47 -89 32 -76 32 -81 40 -287
4 -115 11 -252 15 -303 6 -84 5 -95 -13 -115 -11 -12 -34 -48 -51 -79 -27 -49
-32 -68 -32 -127 0 -39 -5 -73 -10 -76 -12 -8 -11 -10 -45 140 -15 66 -40 165
-55 220 -16 55 -54 199 -85 320 -105 407 -100 382 -86 428 37 126 43 225 47
767 3 492 5 544 24 640 34 174 69 476 71 625 2 175 6 193 29 142 9 -20 28 -49
41 -63z m-8221 -887 c0 -5 -9 -7 -20 -4 -26 7 -26 -5 1 -21 12 -8 18 -9 14 -3
-3 6 2 11 12 11 23 0 57 -73 47 -102 -5 -16 -8 -18 -15 -7 -4 7 -12 10 -16 5
-4 -4 0 -13 9 -20 13 -10 15 -15 6 -24 -9 -9 -8 -12 5 -12 9 0 17 -4 17 -10 0
-5 -4 -10 -9 -10 -5 0 -8 -8 -7 -17 2 -10 -2 -21 -8 -25 -7 -5 -5 -8 6 -8 9 0
20 -5 24 -12 4 -7 3 -8 -4 -4 -16 10 -15 -7 1 -23 10 -10 8 -11 -8 -6 -18 6
-18 5 -5 -7 9 -7 16 -28 15 -48 0 -19 4 -44 9 -55 6 -11 9 -30 7 -42 -2 -17 3
-23 16 -23 17 -1 17 -1 1 -14 -20 -14 -24 -36 -8 -36 6 0 10 6 10 13 0 8 3 7
10 -3 6 -9 5 -17 -3 -22 -9 -6 -9 -8 0 -8 6 0 10 -11 8 -25 -1 -14 1 -25 5
-25 5 0 6 -8 3 -19 -3 -10 3 -34 13 -52 20 -40 26 -79 12 -79 -6 0 -8 -14 -3
-36 4 -24 3 -34 -4 -29 -15 8 -14 -18 1 -33 8 -8 8 -15 1 -24 -13 -17 -23 -68
-12 -68 4 0 10 6 13 13 3 6 3 -6 0 -28 -13 -89 -15 -117 -6 -111 5 3 12 -3 15
-13 3 -14 1 -18 -9 -14 -12 4 -13 1 -3 -21 9 -19 9 -32 1 -51 -7 -16 -8 -26
-1 -30 5 -4 7 -15 4 -26 -4 -11 -2 -19 5 -19 8 0 8 -6 0 -20 -8 -15 -7 -28 5
-52 14 -29 14 -31 0 -14 -8 11 -15 15 -15 9 0 -7 6 -18 13 -25 6 -7 12 -31 11
-53 0 -22 2 -44 5 -50 9 -15 8 -54 -1 -49 -15 9 -8 -13 7 -26 9 -7 14 -22 13
-34 -2 -15 3 -21 17 -21 14 0 20 -7 21 -24 1 -13 8 -28 15 -33 10 -7 7 -8 -13
-5 -19 3 -25 0 -21 -10 3 -7 16 -13 29 -13 13 0 24 -5 24 -11 0 -8 6 -7 18 2
15 12 16 12 5 -1 -17 -22 -13 -63 4 -48 7 5 10 14 7 19 -3 5 2 6 11 2 13 -5
14 -7 3 -14 -9 -6 -8 -8 7 -8 29 1 74 17 53 18 -22 1 -44 38 -22 38 7 0 14 -6
14 -14 0 -7 5 -13 10 -13 6 0 10 7 10 15 0 8 6 15 13 15 6 0 22 18 35 40 12
22 27 40 33 40 6 0 9 8 8 18 -1 9 0 28 1 42 1 22 2 22 9 6 6 -15 9 -11 19 21
7 22 12 47 12 56 0 8 7 18 16 21 11 4 14 13 10 29 -4 17 -1 24 9 24 21 0 19
-14 -16 -114 -37 -104 -54 -141 -80 -168 -28 -29 -84 -107 -92 -127 -6 -17 -8
-17 -39 1 -19 11 -63 21 -102 25 -38 3 -74 10 -80 16 -6 6 -14 77 -17 158 -7
154 -15 209 -55 384 -39 171 -92 336 -136 426 l-41 82 20 28 c35 48 63 110 69
154 8 60 -23 104 -99 141 -31 15 -65 40 -74 55 -10 15 -37 50 -61 79 -31 37
-38 51 -25 48 10 -1 17 -8 16 -14 -2 -6 2 -11 8 -11 7 0 17 -8 24 -17 13 -17
75 -28 75 -14 0 4 9 17 20 29 12 12 22 35 23 51 1 18 7 27 15 24 6 -3 12 -9
12 -14 0 -5 5 -9 11 -9 6 0 9 7 6 14 -4 11 -1 13 10 9 11 -4 14 -3 9 5 -4 7
-1 15 8 18 9 3 16 11 16 17 0 5 -8 2 -19 -7 -17 -16 -19 -16 -25 0 -4 10 -3
20 2 23 4 3 8 15 7 26 0 11 6 25 13 30 16 13 52 14 52 2z"/>
<path d="M9735 16819 c4 -36 15 -57 31 -63 9 -3 13 -10 10 -14 -7 -11 11 -76
35 -127 16 -35 79 -255 96 -337 3 -18 12 -28 27 -30 13 -2 21 -10 21 -22 0
-27 -22 -31 -30 -6 -4 12 -9 19 -12 17 -3 -4 34 -119 62 -189 11 -27 22 -22
23 10 0 15 3 119 5 231 l5 203 -34 105 c-33 101 -87 198 -125 221 -10 6 -40
14 -67 18 -49 6 -50 6 -47 -17z"/>
<path d="M7500 16630 c-67 -12 -137 -26 -206 -44 -34 -8 -96 -19 -138 -25 -63
-7 -88 -16 -132 -45 -29 -20 -63 -36 -74 -36 -12 0 -18 -4 -15 -10 3 -5 0 -7
-8 -4 -15 5 -114 -86 -157 -144 -46 -64 -81 -212 -50 -212 10 0 15 16 25 74
10 57 47 125 92 167 46 44 145 109 164 109 8 0 32 9 54 19 56 27 153 56 268
80 88 19 145 25 317 35 82 5 84 6 77 12 -19 19 -155 34 -217 24z"/>
<path d="M7719 16576 c-2 -2 -54 -9 -115 -15 -125 -13 -191 -30 -281 -73 -49
-23 -69 -28 -101 -23 -35 5 -45 2 -76 -26 -21 -18 -55 -69 -82 -123 -25 -50
-54 -100 -64 -111 -24 -27 -64 -149 -50 -153 7 -3 7 -8 -1 -18 -9 -11 -8 -18
2 -31 10 -11 10 -14 2 -9 -19 11 -17 -29 2 -44 12 -10 16 -9 21 4 3 9 12 16
20 16 8 0 14 5 14 12 0 21 44 76 69 88 18 8 21 14 13 22 -17 17 -15 31 3 24 8
-3 15 -1 15 4 0 16 42 60 57 60 7 0 12 6 11 13 -2 6 3 11 10 10 6 -2 12 1 12
7 0 6 9 10 20 10 11 0 20 5 20 11 0 6 7 9 15 6 8 -4 17 -2 21 4 3 6 12 8 20 5
8 -3 14 0 14 6 0 6 3 9 6 5 3 -3 27 7 52 23 63 38 183 50 234 24 18 -9 54 -19
81 -21 44 -3 47 -2 47 20 0 26 40 54 59 43 6 -4 18 -1 26 8 8 8 26 13 39 10
14 -2 26 1 29 10 3 7 19 16 36 19 31 7 81 43 81 61 0 5 -8 18 -17 28 -16 18
-16 18 3 12 19 -7 19 -7 0 14 -11 12 -26 22 -34 22 -9 0 -23 7 -32 15 -11 10
-44 16 -97 19 -44 2 -85 6 -90 9 -6 4 -12 5 -14 3z"/>
<path d="M8737 16463 c-9 -8 -9 -58 -1 -66 4 -3 8 -44 9 -89 2 -108 22 -191
42 -184 8 3 23 1 34 -5 18 -9 19 -7 15 17 -3 15 -11 32 -17 38 -9 8 -10 8 -5
-1 5 -9 2 -11 -8 -7 -18 7 -10 27 7 21 7 -2 20 0 29 4 22 12 34 -22 18 -52
-10 -17 -9 -23 1 -30 8 -5 10 -9 6 -9 -4 0 -2 -6 5 -14 7 -8 16 -12 21 -9 4 2
7 -7 7 -21 0 -16 6 -26 15 -26 8 0 12 -6 9 -14 -11 -30 102 -99 235 -142 103
-34 306 -36 396 -4 33 11 83 28 110 36 28 9 59 24 71 35 11 10 26 19 33 19 7
0 9 5 6 11 -10 15 -48 28 -60 19 -15 -12 -115 -31 -126 -24 -6 3 -15 1 -22 -4
-13 -11 -187 -9 -227 3 -14 4 -36 9 -50 12 -14 3 -30 10 -37 15 -7 5 -16 7
-21 5 -4 -3 -14 -2 -21 2 -22 14 110 18 191 7 29 -4 49 -3 53 4 3 6 10 8 15 5
14 -9 91 16 123 39 27 20 29 20 59 3 17 -10 50 -20 73 -24 36 -5 43 -3 47 15
6 22 -44 76 -64 69 -7 -2 -29 6 -48 17 -19 12 -54 30 -78 41 -24 10 -48 27
-53 37 -8 15 -17 17 -50 12 -32 -5 -46 -2 -70 15 -27 20 -30 21 -54 5 -18 -12
-38 -15 -71 -11 -31 3 -49 0 -59 -9 -17 -17 -39 -19 -29 -2 5 8 2 9 -9 5 -10
-4 -17 -2 -17 5 0 7 -4 7 -13 0 -8 -7 -18 -6 -31 4 -11 8 -16 15 -10 15 5 1
14 2 19 3 6 1 24 9 41 18 17 10 34 14 37 11 4 -3 12 -1 19 5 23 18 140 34 208
28 110 -11 130 -21 200 -91 68 -69 90 -79 90 -42 -1 36 -46 78 -135 122 -22
11 -51 28 -65 37 -50 32 -264 48 -330 24 -8 -3 -39 -8 -69 -11 -30 -3 -60 -10
-68 -17 -10 -8 -20 -8 -39 1 -23 10 -26 10 -20 -4 3 -9 2 -13 -4 -10 -6 3 -10
1 -10 -4 0 -6 -5 -11 -11 -11 -8 0 -8 5 1 15 16 20 -6 79 -26 71 -8 -3 -14 0
-14 7 0 8 -15 13 -38 13 -35 1 -39 -2 -36 -23 3 -27 1 -27 -27 -10 -17 10 -23
10 -26 0 -7 -19 -30 -16 -46 7 -8 11 -18 17 -23 12 -5 -4 0 3 10 16 18 20 18
22 1 22 -11 0 -15 5 -11 15 6 16 3 19 -7 8z"/>
<path d="M6837 16272 c-59 -65 -70 -171 -41 -394 18 -144 40 -189 29 -60 -11
130 -12 156 -5 265 6 82 12 113 33 155 18 36 22 52 13 52 -7 0 -20 -8 -29 -18z"/>
<path d="M8058 16265 c-10 -13 -18 -30 -18 -38 0 -21 -47 -57 -75 -57 -22 0
-25 -3 -19 -24 7 -30 -24 -43 -58 -24 -22 12 -22 13 -2 16 18 2 20 10 20 52
-1 55 -16 66 -75 54 -31 -7 -39 -18 -21 -29 21 -13 9 -27 -17 -20 -31 7 -55
25 -35 25 7 0 12 5 12 10 0 6 -4 10 -9 10 -13 0 -77 -62 -84 -81 -3 -11 -21
-19 -49 -22 -114 -12 -350 -106 -387 -153 -10 -13 -24 -24 -30 -24 -6 0 -11
-10 -11 -23 0 -12 -9 -29 -20 -37 -11 -8 -20 -19 -20 -25 0 -28 -51 -130 -68
-136 -20 -8 -36 -56 -20 -61 5 -2 -1 -14 -13 -26 -13 -15 -16 -23 -8 -21 8 1
23 1 34 0 l20 -2 -20 -15 c-11 -8 -30 -12 -42 -9 -24 6 -28 -1 -14 -23 6 -10
28 -13 79 -11 54 3 75 0 89 -13 21 -18 173 -31 210 -17 12 4 25 4 28 0 3 -5
22 -5 42 -1 20 5 40 7 43 5 9 -5 140 32 185 53 22 11 62 29 89 41 28 13 60 32
71 43 12 12 36 26 53 32 33 12 129 118 138 154 4 12 12 22 20 22 8 0 14 9 14
19 0 11 6 23 13 27 6 4 9 4 5 -1 -4 -4 1 -20 12 -35 10 -15 21 -39 24 -55 7
-36 8 -37 34 -19 16 11 22 25 22 52 l0 37 -20 -30 c-13 -20 -20 -25 -24 -15
-2 8 -7 23 -10 33 -6 19 23 97 36 97 5 0 8 7 8 15 0 8 4 15 9 15 10 0 2 122
-9 130 -4 3 -11 23 -15 45 -4 22 -10 35 -12 28 -2 -7 -11 -9 -19 -6 -8 3 -14
0 -14 -6 0 -6 -7 -11 -15 -11 -9 0 -15 6 -14 13 3 17 -12 67 -20 67 -3 0 -14
-11 -23 -25z m-361 -201 c44 -17 44 -18 21 -30 -27 -16 -41 -18 -34 -5 3 5 -1
11 -9 15 -10 4 -15 -1 -15 -14 0 -11 6 -20 13 -21 26 -1 -30 -18 -63 -18 -20
-1 -44 -7 -55 -14 -11 -7 -47 -21 -80 -32 -33 -10 -72 -29 -86 -43 -20 -17
-28 -20 -32 -10 -4 9 -6 7 -6 -4 -1 -15 -10 -21 -23 -17 -2 0 -23 -18 -47 -40
-44 -41 -65 -49 -75 -32 -10 16 65 131 86 131 5 0 19 9 31 21 52 49 132 93
198 109 97 22 126 23 176 4z m277 -196 c5 -18 -3 -31 -35 -62 -34 -32 -46 -37
-75 -34 -18 2 -35 0 -37 -5 -2 -8 -81 -27 -169 -40 -9 -2 -23 -9 -32 -16 -9
-7 -25 -11 -35 -8 -12 3 -27 -3 -37 -14 -9 -11 -22 -19 -28 -18 -27 3 -47 -2
-42 -10 4 -5 -34 -8 -91 -7 -58 1 -98 7 -100 13 -5 13 -43 5 -43 -8 0 -5 -9
-9 -20 -9 -24 0 -25 6 -6 26 8 8 31 14 50 14 20 0 36 4 36 9 0 6 8 9 18 9 9 0
24 1 32 4 8 3 12 3 8 1 -5 -3 -8 -12 -8 -21 0 -12 4 -11 23 6 15 14 36 22 58
22 19 0 48 4 66 9 21 6 35 5 43 -2 9 -9 14 -9 17 0 2 7 10 10 18 7 10 -4 12 0
8 15 -5 20 8 27 40 22 4 0 6 5 5 12 -3 12 4 13 142 18 29 2 56 10 76 26 17 13
38 23 47 23 10 0 17 6 17 14 0 14 14 24 36 25 7 1 14 -9 18 -21z"/>
<path d="M9104 14034 c11 -8 23 -14 27 -14 8 0 29 -56 29 -76 0 -8 -11 -14
-24 -14 -19 0 -23 4 -19 20 3 11 1 20 -3 20 -5 0 -10 12 -10 26 -2 29 -15 45
-21 27 -3 -8 -12 -9 -29 -3 -19 7 -34 5 -62 -10 -42 -23 -56 -25 -46 -7 4 6
-2 4 -13 -6 -14 -12 -23 -15 -28 -8 -9 16 -25 13 -19 -3 3 -8 0 -17 -7 -22 -8
-5 -10 -3 -4 6 6 10 1 11 -21 6 -16 -4 -33 -11 -38 -16 -12 -12 2 -30 24 -30
10 0 22 -5 25 -10 8 -12 -43 -3 -61 12 -13 10 -44 0 -44 -14 0 -5 -6 -8 -12
-7 -7 2 -37 -3 -66 -9 -29 -7 -77 -12 -106 -12 -36 0 -58 -5 -66 -15 -7 -9
-21 -13 -31 -10 -13 4 -19 1 -19 -9 0 -10 -6 -13 -15 -10 -15 6 -16 1 -19 -61
-1 -11 -8 -20 -18 -20 -9 0 -20 -3 -23 -7 -4 -4 -17 0 -30 8 -29 19 -55 8 -55
-22 0 -25 23 -33 35 -13 5 7 11 5 18 -4 7 -8 20 -17 30 -20 13 -5 17 -1 18 16
l0 22 11 -22 c13 -26 28 -30 28 -8 0 11 12 15 43 16 23 0 63 4 90 8 42 7 50 5
72 -15 14 -13 25 -30 25 -39 0 -18 17 -20 22 -3 3 7 12 9 22 5 11 -4 16 -13
12 -22 -3 -8 0 -17 5 -21 16 -10 58 16 52 32 -3 8 3 17 13 21 11 4 24 13 30
21 9 12 13 12 26 -2 22 -22 38 -20 38 4 0 11 6 20 14 20 8 0 18 9 21 20 8 26
25 26 25 1 0 -26 16 -35 24 -15 5 12 14 15 38 10 35 -7 58 7 58 36 0 24 23 19
30 -8 6 -24 44 -25 67 -1 13 13 15 20 5 29 -7 7 -12 27 -12 45 0 38 22 53 51
35 15 -10 23 -9 38 4 11 10 17 23 14 30 -3 9 2 14 13 14 21 0 49 49 36 62 -5
5 -21 4 -36 -2 -17 -6 -25 -6 -21 0 3 6 -4 10 -17 10 -13 0 -34 7 -47 16 -13
9 -42 18 -65 20 -38 2 -39 1 -22 -12z"/>
</g>
</svg>
